<?xml version="1.0" encoding="UTF-8"?>
<svg xmlns="http://www.w3.org/2000/svg" viewBox="0 0 128 128" width="128" height="128">
  <defs>
    <linearGradient id="grad1" x1="0%" y1="0%" x2="100%" y2="100%">
      <stop offset="0%" style="stop-color:#6366f1;stop-opacity:1" />
      <stop offset="100%" style="stop-color:#8b5cf6;stop-opacity:1" />
    </linearGradient>
  </defs>
  <circle cx="64" cy="64" r="60" fill="url(#grad1)"/>
  <path d="M64 32 C44 32 32 48 32 64 C32 80 44 96 64 96 C84 96 96 80 96 64 C96 48 84 32 64 32 Z M56 48 L72 48 L72 60 L80 60 L80 76 L72 76 L72 88 L56 88 L56 76 L48 76 L48 60 L56 60 Z" fill="white"/>
  <circle cx="64" cy="64" r="4" fill="white"/>
</svg>
