<?xml version="1.0" encoding="UTF-8"?>
<svg xmlns="http://www.w3.org/2000/svg" viewBox="0 0 128 128" width="128" height="128">
  <defs>
    <linearGradient id="grad10" x1="0%" y1="0%" x2="100%" y2="100%">
      <stop offset="0%" style="stop-color:#10b981;stop-opacity:1" />
      <stop offset="100%" style="stop-color:#059669;stop-opacity:1" />
    </linearGradient>
  </defs>
  <circle cx="64" cy="64" r="60" fill="url(#grad10)"/>
  <rect x="44" y="28" width="40" height="72" rx="8" fill="white" opacity="0.9"/>
  <rect x="48" y="36" width="32" height="48" rx="2" fill="#10b981"/>
  <circle cx="64" cy="92" r="4" fill="#10b981"/>
  <rect x="54" y="30" width="20" height="2" rx="1" fill="#10b981" opacity="0.5"/>
  <path d="M30 64 Q20 64 20 54 L20 44 Q20 34 30 34" fill="none" stroke="white" stroke-width="2" opacity="0.6"/>
  <path d="M98 64 Q108 64 108 54 L108 44 Q108 34 98 34" fill="none" stroke="white" stroke-width="2" opacity="0.6"/>
  <path d="M30 74 Q20 74 20 84 L20 94 Q20 104 30 104" fill="none" stroke="white" stroke-width="2" opacity="0.6"/>
  <path d="M98 74 Q108 74 108 84 L108 94 Q108 104 98 104" fill="none" stroke="white" stroke-width="2" opacity="0.6"/>
</svg>
