<?xml version="1.0" encoding="UTF-8"?>
<svg xmlns="http://www.w3.org/2000/svg" viewBox="0 0 128 128" width="128" height="128">
  <defs>
    <linearGradient id="grad9" x1="0%" y1="0%" x2="100%" y2="100%">
      <stop offset="0%" style="stop-color:#06b6d4;stop-opacity:1" />
      <stop offset="100%" style="stop-color:#0891b2;stop-opacity:1" />
    </linearGradient>
  </defs>
  <circle cx="64" cy="64" r="60" fill="url(#grad9)"/>
  <circle cx="40" cy="52" r="12" fill="white" opacity="0.9"/>
  <circle cx="88" cy="52" r="12" fill="white" opacity="0.9"/>
  <path d="M28 76 L40 68 L56 76 L72 68 L88 76 L100 68 L100 84 C100 92 84 100 64 100 C44 100 28 92 28 84 Z" fill="white" opacity="0.8"/>
  <path d="M52 52 L60 52 L60 60 L68 60 L68 68 L60 68 L60 76 L52 76 L52 68 L44 68 L44 60 L52 60 Z" fill="#06b6d4"/>
</svg>
